#tb 0: 1/25
0,          0,          0,        1,   101088, 0x7bf448f8
0,          1,          1,        1,   101088, 0x1ba749ec
0,          2,          2,        1,   101088, 0x94eb4dc4
0,          3,          3,        1,   101088, 0xd80b4f54
0,          4,          4,        1,   101088, 0x6fd44fff
0,          5,          5,        1,   101088, 0xf30e4f12
0,          6,          6,        1,   101088, 0x67a04fef
0,          7,          7,        1,   101088, 0xd92b4f8e
0,          8,          8,        1,   101088, 0x92cd4cde
0,          9,          9,        1,   101088, 0x93a34973
0,         10,         10,        1,   101088, 0x79a646cb
0,         11,         11,        1,   101088, 0x5d9c4227
0,         12,         12,        1,   101088, 0x239941ff
0,         13,         13,        1,   101088, 0x147e11de
0,         14,         14,        1,   101088, 0x3943cbd5
0,         15,         15,        1,   101088, 0x2ce1c01f
0,         16,         16,        1,   101088, 0xe0b7ec06
0,         17,         17,        1,   101088, 0xfe5b9baa
0,         18,         18,        1,   101088, 0x9acb4d37
0,         19,         19,        1,   101088, 0xbdbd9af5
